<svg xmlns="http://www.w3.org/2000/svg" preserveAspectRatio="xMinYMin" width="255" height="61.3" viewBox="0 0 255 61.3" fill="#FFFFFF">
  <path d="M11 46.3c.1-.2 2.8 10.5 17.5 8.6-3-6.9-11.9-11.4-14-11.5.4-.3 3-2.2 3.4-2.5-.6 1.9 7.9 9.7 14.4 7.5-1.7-5.3-8.9-9.8-10.8-9.8.8-.4 1.6-1 2.4-1.4-.4 1 5.8 7.1 12.4 6.6.1-3.1-7.1-9.1-8.5-8.7.7-.3 1.7-.9 2-1.1.9 2.2 7.1 6.8 11.3 6-3.4-7.3-7.8-7.7-7.9-7.7 1.2-.6 1.9-.9 2.1-1 0 1.9 6 6.4 10.2 5.3-.9-3.2-4.2-6.4-7.4-6.7l2.2-1.1c-.3.6 4.7 4.8 9.6 4.6-2.3-5.6-5.5-5.8-6.7-6 .7-.3 1.4-.7 2-1 .3.7 2.9 4.4 9.3 3.5-1.6-3.4-5-4.6-6.7-4.7.9-.5 1.6-.8 2.2-1.1.4.5 2 3.9 8.5 2.7-1.4-3.3-4.3-4-5.5-4.3.5-.3 1.2-.7 1.6-.9.4.7 3.7 3.1 7.3 2.1-.7-2-3.2-3.1-5.4-3.2 1-.6 1.9-1.3 1.9-1.3.3.8 2.3 2.6 6.7 1.4-1.4-2.8-5.1-2.5-5.2-2.4.9-.7 1.1-.9 1.8-1.4.1 0 2.1 2.9 5.8.9-1.1-1.7-2.7-2.5-4.4-2.1.5-.5.9-.8 1.3-1.3-.2.4 2.7 1.9 5.2 0-1.2-1.2-2.5-1.5-3.9-1.4.3-.4.4-.4.8-.9 0 0 2.2 1.7 4.4-.4-1.7-1.3-3.7-.5-3.7-.5l.8-1.3c.4.5 2.8.9 3.6-.7-.7-.7-2.9-.4-3.1-.3.1-.1.3-.5.4-.8 4.5.6 3-4.7 1.9-7.6C53.9 26.2 31.4 8 3.9 24.1 2.6 27.5 2.1 31 2.5 34.6c0 .4 0 .6.2 1.4-.1.2.3 2.2 1 4.4.5 1.6 1.2 2.6 1.8 4.2.4-.3.9-.6 1.2-.9-1.2-1.7-5.4-12.3-.2-18.5 4.9-.1 5.4 13.8 4.6 15.3 0 0 2.3-1.5 3.1-2-1-.4-4.7-12.5 1.4-17.5 0 0 5.5 2.1 3.2 14.8.9-.6 2.2-1.2 3.5-1.8-.7-1.2-4.4-10.3 1.6-15.1 3.2 1.3 3.1 11.3 1.8 13.5 1-.5 2.1-1.1 3.2-1.5-1.9-.9-1.8-10.3 1.4-12.8 3.6 3.3 2.7 8.9 1.8 11.4l2.7-1.1c-2.1-4-1.1-8.8 1.1-10.7 1.7 1.1 2.2 4.3 1.4 9.6.8-.3 1.2-.5 1.9-.8-.5-.9-1.7-6.3 1.4-9.2 2.8 1.3 1.8 7.4 1.6 8 0 0 1.6-.6 1.6-.7-.6-1.2-.9-5.6 1.6-7.8 1 .7 2.1 2.8 1.1 6.6.6-.3 1.2-.5 1.9-.8-.9-1-.2-4.9 1.1-6.5 1.6.7 2.3 4.1 1.7 5.2.4-.2.9-.4 1.5-.8-.5-.8-.7-4.5.9-5.5 1.5 1 1.4 3.7 1.3 4.3.4-.3 1.7-.9 1.7-.9-.8-.7-1.2-3.2.6-4.7 1.6.3 1.6 3.3 1.5 3.4.6-.4 1.6-1.1 2.1-1.5-1.4-.3-1.3-2.6-.5-3.6.9.2 1.6.8 1.9 2.5.4-.3 1.2-1 1.5-1.4-.9-.1-1.9-1.9-.6-3.2.4.2 1.6.7 1.8 2 .2-.1.8-.9.9-1.1-.6-.2-1.3-2-.6-2.8.8-.1 1.5 1 1.7 1.5l.8-1.2c-.5-.4-1.4-1.5-.6-2.4.9 0 1.3.7 1.5 1.4C59.2 25.7 21.7 28.8 2 50.8c0 0-2 2.1-2 3.2v7.4h.4c1-2.9 4.2-10 10.6-15.1M82.4 0c-2.2 0-4 1.9-3.9 4.1.1 2.2 1.9 4 4.1 3.9 2.2-.1 4-1.9 3.9-4.1 0-2.2-1.9-4-4.1-3.9zm3.7 3.9c0 1.9-1.5 3.6-3.4 3.6-2 0-3.6-1.5-3.6-3.4C79 2.2 80.6.5 82.5.5 84.4.4 86 2 86.1 3.9z"/>
  <path d="M82 3.2v-.5h-2.1v.5h.8v2.4h.5V3.2h.8zm2.9 2.4V2.7h-.5l-.9 1.7-.8-1.7h-.6v2.9h.6V3.7l.6 1.3h.5l.6-1.3v1.9h.5zm10.8 32.1c-1.1 1.2-2.4 1.6-3.9 1.6s-2.8-.5-3.8-1.5c-1.4-1.4-1.4-3.2-1.4-5.6 0-2.4 0-4.2 1.4-5.6 1-1 2.2-1.5 3.8-1.5 3.2 0 4.9 2.1 5.2 4.5h-2.7c-.3-1.3-1.1-2-2.5-2-.7 0-1.4.3-1.7.7-.5.6-.7 1.2-.7 3.9s.1 3.3.7 3.9c.4.5 1 .7 1.7.7.8 0 1.5-.3 1.9-.8.5-.5.6-1.1.6-1.9v-.5h-2.6v-2.3H97v2c0 2.2-.3 3.4-1.3 4.4zm27.5-3.7h-2.7v5.3h-2.7v-14h5.4c2.9 0 4.6 2 4.6 4.4 0 2.3-1.7 4.3-4.6 4.3zm-.1-6.3h-2.5v3.8h2.5c1.2 0 2-.8 2-1.9 0-1.1-.8-1.9-2-1.9zm26.3 11.5l-2.7-5.6h-2v5.6H142v-14h5.5c2.8 0 4.5 1.9 4.5 4.3 0 2-1.2 3.2-2.5 3.7l3.1 6h-3.2zm-2.2-11.5h-2.6v3.7h2.6c1.2 0 2-.8 2-1.8 0-1.2-.8-1.9-2-1.9zm27.2 10.1c-1 1-2.2 1.5-3.8 1.5-1.6 0-2.8-.5-3.8-1.5-1.4-1.4-1.4-3.2-1.4-5.6 0-2.4 0-4.2 1.4-5.6 1-1 2.2-1.5 3.8-1.5 1.6 0 2.8.5 3.8 1.5 1.4 1.4 1.4 3.2 1.4 5.6 0 2.4 0 4.2-1.4 5.6zm-2-9.5c-.4-.4-1-.7-1.7-.7s-1.4.3-1.8.7c-.5.6-.7 1.2-.7 3.9s.1 3.3.7 3.9c.4.4 1 .7 1.8.7.7 0 1.4-.3 1.7-.7.5-.6.7-1.2.7-3.9s-.2-3.3-.7-3.9zM186 39.2l-2.7-5.6h-2v5.6h-2.7v-14h5.5c2.8 0 4.5 1.9 4.5 4.3 0 2-1.2 3.2-2.5 3.7l3.1 6H186zm-2.1-11.5h-2.6v3.7h2.6c1.2 0 2-.8 2-1.8-.1-1.2-.9-1.9-2-1.9zm17.4 11.5v-8.1l-2.7 5.3h-1.8l-2.7-5.3v8.1h-2.7v-14h2.7l3.6 7.5 3.6-7.5h2.7v14h-2.7zm37.1.1c-1.5 0-2.8-.5-3.8-1.5-1.4-1.4-1.4-3.2-1.4-5.6 0-2.4 0-4.2 1.4-5.6 1-1 2.2-1.5 3.8-1.5 2.6 0 4.6 1.5 5.1 4.4h-2.8c-.3-1.1-1-2-2.4-2-.7 0-1.4.3-1.7.7-.5.6-.7 1.3-.7 3.9 0 2.7.2 3.3.7 3.9.4.5 1 .7 1.7.7 1.4 0 2.1-.9 2.4-2h2.8c-.5 3.1-2.5 4.6-5.1 4.6zm-24.9-12.7c-.3-.9-.9-1.4-1.7-1.4h-1l-5.1 13.9h2.9l.8-2.4h4.8l.8 2.4h2.9l-4.4-12.5zm-3.2 7.8l1.7-4.8 1.6 4.8h-3.3zm-52.7 4.8h-2.8v-9.3c0-.9 0-2.8.4-3.5.5-.7 1.1-1.1 2.3-1.1h6.5v2.6h-5.1c-.4 0-.7.1-1 .4-.3.3-.4.8-.4 1.2v1.7h5.5v2.5h-5.5l.1 5.5zm70.1-7.5V27c-.1-.7-.2-1.1-.8-1.4v-.1s0-.1.1-.1h1.6c1.3 0 2 .9 2 2.9v11h-2.5l-5.4-8.3v8.3h-2.8V25.5h2.5l5.4 8.3v-2.1zM81 28.9V27c0-.9-.3-1.3-.9-1.7 0 0 0-.1.1-.1h1.7c1.1 0 2 .4 2.1 3v10.9h-3V28.9zm-10.5-1.1v3.1h4.6V27c0-.9-.3-1.3-.9-1.7 0 0 0-.1.1-.1H76c1.1 0 2 .4 2.1 3v10.9h-2.8v-5.8h-4.6v5.8h-2.8V25.3h2.8v2.5zm32.1 0v3.1h4.6V27c0-.9-.3-1.3-.9-1.7 0 0 0-.1.1-.1h1.7c1.1 0 2 .4 2.1 3v10.9h-2.8v-5.8h-4.6v5.8H100V25.3h2.8v2.5zm36.6 11.5H130V30c0-.9 0-2.8.4-3.5.5-.7 1.1-1.1 2.3-1.1h6.5V28h-5.1c-.3 0-.7.1-1 .4-.3.3-.4.8-.4 1.2v1.6h5.5v2.5h-5.5v3.2h6.4v2.4h.1zm115.8 0h-9.2V30c0-.9 0-2.8.4-3.5.5-.7 1.1-1.1 2.3-1.1h6.5V28h-5.1c-.4 0-.7.1-1 .4-.3.3-.4.8-.4 1.2v1.6h5.5v2.5h-5.5v3.2h6.4v2.4h.1zm-34.2 18.4h-4V46.6h4c1.2 0 2.3.4 3 1.1 1.2 1.1 1.1 2.6 1.1 4v.8c0 1.5 0 3-1.1 4.1-.8.8-1.8 1.1-3 1.1zm-1.8-2h1.6c.7 0 1.2-.2 1.6-.7.4-.5.5-1.3.5-2.9 0-1.7-.1-2.4-.5-2.8-.4-.5-.9-.7-1.6-.7H219v7.1zm-44.4 2h-7.4v-7.5c0-.7 0-2.2.3-2.8.4-.6.9-.9 1.8-.9h5.2v2h-4c-.3 0-.6.1-.8.3-.2.2-.3.7-.3 1V51h4.4v2h-4.4v2.6h5.1v2.1h.1zm-35.2-11.1H132v7.5c0 .7 0 2.2.3 2.8.4.6.9.9 1.8.9h5.2v-2h-4c-.3 0-.6-.1-.8-.3-.2-.2-.3-.7-.3-1v-1.2h4.4v-2h-4.4v-2.6h5.1v-2.1h.1zm49.7 9.1h5v2h-7.3V48c0-.7-.2-1-.7-1.3h1.3c.9 0 1.6.3 1.7 2.4v6.6zm-59.4 2h-2l-4.3-6.6v6.6h-2.2V46.6h2l4.3 6.6v-6.6h2.2v11.1zm82.5-6.1v-3.8c0-.6-.2-.9-.6-1.1v-.1h1.3c1 0 1.6.7 1.6 2.3v8.8h-2l-4.3-6.7v6.7h-2.3V46.6h2l4.3 6.7v-1.7zM201 47.7c-.2-.7-.7-1.1-1.3-1.1h-.8l-4.1 11.2h2.4l.7-2h3.9l.7 2h2.4L201 47.7zm-2.5 6.2l1.3-3.8 1.3 3.8h-2.6zM182 47.7c-.2-.7-.7-1.1-1.3-1.1h-.8l-4.1 11.2h2.4l.7-2h3.9l.7 2h2.4L182 47.7zm-2.6 6.2l1.3-3.8 1.3 3.8h-2.6zm-34.4-.5l2-6.8h1.7l2 6.8 1.7-6.8h2.4l-3 11.2h-1.9l-2-6.6-2 6.6H144l-2.6-9.6c-.2-.9-.5-1.2-1.2-1.5v-.1h1.5c1.1 0 1.7.5 1.9 1.5l1.4 5.3zm19.7-3.9c.4-.7.7-1.6.7-2.3v-.6h-7.2v2h4.5l-4.7 7.3v1.8h7.4v-2h-4.7l4-6.2zm-82.6 4H80v4.2h-2.2V46.5h4.3c2.3 0 3.7 1.6 3.7 3.5s-1.4 3.5-3.7 3.5zm-.1-5h-2v3h2c1 0 1.6-.6 1.6-1.5s-.6-1.5-1.6-1.5zm12.3 8c-.8.8-1.7 1.2-3 1.2s-2.2-.4-3-1.2c-1.1-1.1-1.1-2.5-1.1-4.4 0-1.9 0-3.3 1.1-4.4.8-.8 1.7-1.2 3-1.2s2.2.4 3 1.2c1.1 1.1 1.1 2.5 1.1 4.4 0 1.9.1 3.3-1.1 4.4zM92.7 49c-.3-.4-.8-.6-1.4-.6-.6 0-1.1.2-1.4.6-.4.5-.5 1-.5 3.1s.1 2.6.5 3.1c.3.4.8.6 1.4.6.6 0 1.1-.2 1.4-.6.4-.5.5-1 .5-3.1.1-2.1 0-2.7-.5-3.1zm10.8 8.6l-2.2-4.4h-1.6v4.4h-2.2V46.5h4.3c2.3 0 3.6 1.5 3.6 3.4 0 1.6-1 2.5-2 2.9l2.5 4.8h-2.4zm-1.6-9.1h-2v2.9h2c1 0 1.6-.6 1.6-1.5-.1-.8-.7-1.4-1.6-1.4zm10.2 0v9.2h-2.2v-9.2H107v-1.9h8v1.9h-2.9zM74.9 52c-.5-.5-1.2-.7-2.1-.9l-1.3-.2c-.4-.1-.8-.2-1-.4-.2-.2-.3-.5-.3-.8 0-.8.6-1.3 1.6-1.3.5 0 1.1.1 1.7.3.4.2.8.2 1.1-.1l.9-.9c-.9-.9-2-1.3-3.6-1.3-2.4 0-3.9 1.3-3.9 3.4 0 .9.3 1.7.8 2.2.5.5 1.2.8 2.2.9l1.3.2c.5.1.7.2.9.4.2.2.3.5.3.9 0 .9-.7 1.3-1.9 1.3-1.1 0-2-.3-2.6-.9l-1.5 1.5c1 1 2.2 1.5 4 1.5 2.5 0 4.1-1.4 4.1-3.4.2-1.1-.1-1.9-.7-2.4z"/>
</svg>
