<svg xmlns="http://www.w3.org/2000/svg" width="229" height="18" viewBox="0 0 229 18">
  <g fill-rule="evenodd">
    <path d="M58.0965517,10.5517241 L62.0068966,10.5517241 L60.0517241,5.12068966 L58.0965517,10.5517241 Z M57.2027586,13.0344828 L56.157593,15.9377207 C55.9802831,16.4302482 55.513066,16.7586207 54.9895948,16.7586207 L52.4482759,16.7586207 L58.6551724,1.24137931 L61.4482759,1.24137931 L67.6551724,16.7586207 L65.1138535,16.7586207 C64.5903823,16.7586207 64.1231652,16.4302482 63.9458553,15.9377207 L62.9006897,13.0344828 L57.2027586,13.0344828 Z M78.7100441,10.2138119 L83.1724138,16.7586207 L80.4400708,16.7586207 C80.0156427,16.7586207 79.6206319,16.5417811 79.3927668,16.1837075 L75.8087774,10.5517241 L73.862069,10.5517241 L73.862069,16.7586207 L70.7586207,16.7586207 L70.7586207,1.24137931 L76.9655172,1.24137931 C79.536498,1.24137931 81.6206897,3.32557099 81.6206897,5.89655172 C81.6206897,7.85064196 80.416682,9.52352114 78.7100441,10.2138119 Z M121.655172,10.5517241 L121.655172,16.7586207 L118.551724,16.7586207 L118.551724,1.24137931 L124.758621,1.24137931 C127.329601,1.24137931 129.413793,3.32557099 129.413793,5.89655172 C129.413793,8.46753246 127.329601,10.5517241 124.758621,10.5517241 L121.655172,10.5517241 Z M93.4137931,3.72413793 L93.4137931,16.7586207 L90.3103448,16.7586207 L90.3103448,3.72413793 L85.6551724,3.72413793 L85.6551724,1.24137931 L98.0689655,1.24137931 L98.0689655,3.72413793 L93.4137931,3.72413793 Z M47.1724138,3.72413793 L47.1724138,16.7586207 L44.0689655,16.7586207 L44.0689655,3.72413793 L39.4137931,3.72413793 L39.4137931,1.24137931 L51.8275862,1.24137931 L51.8275862,3.72413793 L47.1724138,3.72413793 Z M35.2931372,4.14882925 C35.194006,4.32191146 35.0882017,4.44804052 34.9704236,4.53064553 C34.8456497,4.61815708 34.6939475,4.66103392 34.5196775,4.66103392 C34.336509,4.66103392 34.1454635,4.59616912 33.9464868,4.47070489 C33.7736671,4.36173397 33.5666282,4.24004054 33.3255063,4.10574442 C33.0908501,3.97504955 32.8148861,3.85569022 32.4976795,3.74799051 C32.1894327,3.64333288 31.821521,3.59046173 31.3939078,3.59046173 C31.008441,3.59046173 30.6736784,3.63642349 30.3895812,3.7274365 C30.107605,3.81777001 29.873361,3.94195314 29.6857185,4.09944185 C29.5007251,4.25470725 29.3637011,4.43947558 29.2732037,4.65530211 C29.1812229,4.87466629 29.1350385,5.11632773 29.1350385,5.38146602 C29.1350385,5.70978048 29.2249844,5.97714743 29.4042657,6.19031498 C29.5940881,6.41601594 29.8475673,6.61009352 30.166027,6.77216995 C30.4944618,6.93932304 30.8695318,7.0895504 31.2912148,7.22263886 C31.7220065,7.35860213 32.1635121,7.50349203 32.6157476,7.65731263 C33.0725997,7.81270353 33.5185906,7.99339714 33.9537054,8.19938873 C34.3976877,8.4095783 34.7941432,8.6754641 35.142565,8.99686624 C35.4949286,9.32190439 35.7775539,9.71924754 35.9901711,10.1876789 C36.2042148,10.6592532 36.3103448,11.2271074 36.3103448,11.8905449 C36.3103448,12.6093263 36.1868309,13.2836355 35.9396189,13.9124795 C35.6916614,14.5432195 35.3284527,15.0936069 34.8506984,15.5623885 C34.3732131,16.0309062 33.791151,16.3992393 33.1058058,16.6673235 C32.4205113,16.9353879 31.6384003,17.0689655 30.7601607,17.0689655 C30.2555974,17.0689655 29.7582031,17.0197562 29.2681186,16.9213365 C28.7787266,16.8230559 28.3091666,16.6828389 27.8595546,16.5006782 C27.4099985,16.3185401 26.9876018,16.0998436 26.5924843,15.8446014 C26.196129,15.5885596 25.8433026,15.3028423 25.5342149,14.9874488 L25.4482759,14.8997564 L25.5125084,14.7952195 L26.3672548,13.4048947 C26.451871,13.2868264 26.5613713,13.1881843 26.6944267,13.1094457 C26.8331978,13.0273246 26.9827492,12.9856773 27.1402831,12.9856773 C27.355465,12.9856773 27.5791314,13.070305 27.8115046,13.2340221 C28.0165411,13.3784792 28.2611483,13.5392412 28.5452048,13.7161856 C28.8225785,13.8889671 29.1482868,14.0469393 29.5223333,14.1897884 C29.8860215,14.3286817 30.3272161,14.3988325 30.8460925,14.3988325 C31.6343568,14.3988325 32.2351636,14.21549 32.6547289,13.8537408 C33.0689917,13.4965636 33.2768255,12.9819966 33.2768255,12.2973623 C33.2768255,11.9241896 33.185382,11.6267885 33.0048061,11.3994519 C32.8150605,11.160571 32.5621864,10.9586113 32.2446575,10.7936418 C31.9180627,10.6239623 31.544958,10.4797352 31.1252757,10.361221 C30.6937731,10.2393689 30.2551469,10.1067857 29.8093816,9.96346909 C29.3591276,9.81870932 28.9161999,9.64502279 28.4806163,9.44242704 C28.0353847,9.23534393 27.6379254,8.96508273 27.2888359,8.63196059 C26.9362089,8.29546283 26.6538003,7.87605605 26.4415738,7.37508744 C26.228561,6.8722629 26.123002,6.25762892 26.123002,5.53134613 C26.123002,4.94641241 26.2400365,4.37614839 26.4736825,3.82170021 C26.7075901,3.2666312 27.0474433,2.77428121 27.4923789,2.34560853 C27.9373578,1.91689401 28.4847997,1.57403842 29.1335268,1.3168808 C29.7832298,1.05933634 30.5261879,0.931034483 31.3616834,0.931034483 C32.2965422,0.931034483 33.1600861,1.07691067 33.9515346,1.36906401 C34.7444578,1.66176172 35.4216236,2.07257755 35.9817417,2.60144941 L36.0687245,2.68357985 L35.2931372,4.14882925 Z M73.862069,4.34482759 L73.862069,7.44827586 L76.9655172,7.44827586 C77.8225108,7.44827586 78.5172414,6.7535453 78.5172414,5.89655172 C78.5172414,5.03955815 77.8225108,4.34482759 76.9655172,4.34482759 L73.862069,4.34482759 Z M121.655172,4.34482759 L121.655172,7.44827586 L124.758621,7.44827586 C125.615614,7.44827586 126.310345,6.7535453 126.310345,5.89655172 C126.310345,5.03955815 125.615614,4.34482759 124.758621,4.34482759 L121.655172,4.34482759 Z M104.896552,2.48275862 L104.896552,10.7068966 C104.896552,12.5065831 106.510658,13.9655172 108.310345,13.9655172 C110.110031,13.9655172 111.724138,12.5065831 111.724138,10.7068966 L111.724138,2.48275862 C111.724138,1.79716376 112.279922,1.24137931 112.965517,1.24137931 L114.827586,1.24137931 L114.827586,10.862069 C114.827586,14.1186446 112.18761,16.7586207 108.931034,16.7586207 L107.689655,16.7586207 C104.43308,16.7586207 101.793103,14.1186446 101.793103,10.862069 L101.793103,1.24137931 L103.655172,1.24137931 C104.340767,1.24137931 104.896552,1.79716376 104.896552,2.48275862 Z"/>
    <path fill-rule="nonzero" d="M8.12910769,7.03020849 L2.11078448,3.15108706 L2.11078448,10.9093299 L8.12910769,7.03020849 Z M-6.2035653e-15,0.920645911 C-6.04287883e-15,0.412187214 0.40501303,1.02446139e-15 0.904621921,8.8817842e-16 C1.07600208,8.8817842e-16 1.24385653,0.0495450943 1.38864176,0.142866684 L10.8674175,6.25242926 C11.2894967,6.52448115 11.4149563,7.0932464 11.1476396,7.522802 C11.0760916,7.63777362 10.9803881,7.73517236 10.8674175,7.80798772 L1.38864176,13.9175503 C0.966562641,14.1896022 0.407696843,14.0619202 0.140380066,13.6323646 C0.0486827539,13.4850147 -8.48025578e-15,13.314187 -8.8817842e-15,13.1397711 L-6.2035653e-15,0.920645911 Z M13.4237288,10.3925694 C13.7547895,10.890103 13.6198366,11.5618114 13.122303,11.8928721 C13.1169751,11.8964173 13.1116158,11.8999152 13.1062258,11.9033653 L3.97851993,17.7460237 C3.46353962,18.0756634 2.77940234,17.9318878 2.44067797,17.4228369 C2.10961725,16.9253032 2.2445702,16.2535948 2.74210382,15.9225341 C2.74743172,15.9189889 2.75279098,15.915491 2.75818094,15.9120409 L11.8858869,10.0693825 C12.4008672,9.73974282 13.0850044,9.88351843 13.4237288,10.3925694 Z"/>
    <path d="M184.344828,1.24137931 L194.275862,1.24137931 L194.275862,3.72413793 L187.448276,3.72413793 L187.448276,7.75862069 L192.724138,7.75862069 L192.724138,10.2413793 L187.448276,10.2413793 L187.448276,14.2758621 L194.275862,14.2758621 L194.275862,16.7586207 L184.344828,16.7586207 L184.344828,1.24137931 Z M166.034483,16.7586207 L166.034483,1.24137931 L172.241379,1.24137931 C176.526347,1.24137931 180,4.71503211 180,9 C180,13.2849679 176.526347,16.7586207 172.241379,16.7586207 L166.034483,16.7586207 Z M169.137931,4.03448276 L169.137931,13.9655172 L171.931034,13.9655172 C174.673414,13.9655172 176.896552,11.7423794 176.896552,9 C176.896552,6.25762055 174.673414,4.03448276 171.931034,4.03448276 L169.137931,4.03448276 Z M145.241379,16.7586207 L139.034483,1.24137931 L141.575802,1.24137931 C142.099273,1.24137931 142.56649,1.56975179 142.7438,2.06227928 L146.637931,12.8793103 L150.532062,2.06227928 C150.709372,1.56975179 151.176589,1.24137931 151.70006,1.24137931 L154.241379,1.24137931 L148.034483,16.7586207 L145.241379,16.7586207 Z M227.086241,4.14882925 C226.987109,4.32191146 226.881305,4.44804052 226.763527,4.53064553 C226.638753,4.61815708 226.487051,4.66103392 226.312781,4.66103392 C226.129612,4.66103392 225.938567,4.59616912 225.73959,4.47070489 C225.566771,4.36173397 225.359732,4.24004054 225.11861,4.10574442 C224.883954,3.97504955 224.60799,3.85569022 224.290783,3.74799051 C223.982536,3.64333288 223.614624,3.59046173 223.187011,3.59046173 C222.801544,3.59046173 222.466782,3.63642349 222.182685,3.7274365 C221.900708,3.81777001 221.666464,3.94195314 221.478822,4.09944185 C221.293829,4.25470725 221.156805,4.43947558 221.066307,4.65530211 C220.974326,4.87466629 220.928142,5.11632773 220.928142,5.38146602 C220.928142,5.70978048 221.018088,5.97714743 221.197369,6.19031498 C221.387192,6.41601594 221.640671,6.61009352 221.95913,6.77216995 C222.287565,6.93932304 222.662635,7.0895504 223.084318,7.22263886 C223.51511,7.35860213 223.956616,7.50349203 224.408851,7.65731263 C224.865703,7.81270353 225.311694,7.99339714 225.746809,8.19938873 C226.190791,8.4095783 226.587247,8.6754641 226.935668,8.99686624 C227.288032,9.32190439 227.570657,9.71924754 227.783275,10.1876789 C227.997318,10.6592532 228.103448,11.2271074 228.103448,11.8905449 C228.103448,12.6093263 227.979934,13.2836355 227.732722,13.9124795 C227.484765,14.5432195 227.121556,15.0936069 226.643802,15.5623885 C226.166317,16.0309062 225.584254,16.3992393 224.898909,16.6673235 C224.213615,16.9353879 223.431504,17.0689655 222.553264,17.0689655 C222.048701,17.0689655 221.551307,17.0197562 221.061222,16.9213365 C220.57183,16.8230559 220.10227,16.6828389 219.652658,16.5006782 C219.203102,16.3185401 218.780705,16.0998436 218.385588,15.8446014 C217.989232,15.5885596 217.636406,15.3028423 217.327318,14.9874488 L217.241379,14.8997564 L217.305612,14.7952195 L218.160358,13.4048947 C218.244974,13.2868264 218.354475,13.1881843 218.48753,13.1094457 C218.626301,13.0273246 218.775853,12.9856773 218.933387,12.9856773 C219.148568,12.9856773 219.372235,13.070305 219.604608,13.2340221 C219.809645,13.3784792 220.054252,13.5392412 220.338308,13.7161856 C220.615682,13.8889671 220.94139,14.0469393 221.315437,14.1897884 C221.679125,14.3286817 222.12032,14.3988325 222.639196,14.3988325 C223.42746,14.3988325 224.028267,14.21549 224.447832,13.8537408 C224.862095,13.4965636 225.069929,12.9819966 225.069929,12.2973623 C225.069929,11.9241896 224.978485,11.6267885 224.79791,11.3994519 C224.608164,11.160571 224.35529,10.9586113 224.037761,10.7936418 C223.711166,10.6239623 223.338061,10.4797352 222.918379,10.361221 C222.486877,10.2393689 222.04825,10.1067857 221.602485,9.96346909 C221.152231,9.81870932 220.709303,9.64502279 220.27372,9.44242704 C219.828488,9.23534393 219.431029,8.96508273 219.081939,8.63196059 C218.729312,8.29546283 218.446904,7.87605605 218.234677,7.37508744 C218.021664,6.8722629 217.916105,6.25762892 217.916105,5.53134613 C217.916105,4.94641241 218.03314,4.37614839 218.266786,3.82170021 C218.500694,3.2666312 218.840547,2.77428121 219.285482,2.34560853 C219.730461,1.91689401 220.277903,1.57403842 220.92663,1.3168808 C221.576333,1.05933634 222.319291,0.931034483 223.154787,0.931034483 C224.089646,0.931034483 224.95319,1.07691067 225.744638,1.36906401 C226.537561,1.66176172 227.214727,2.07257755 227.774845,2.60144941 L227.861828,2.68357985 L227.086241,4.14882925 Z M157.965517,1.24137931 L161.068966,1.24137931 L161.068966,16.7586207 L157.965517,16.7586207 L157.965517,1.24137931 Z M205.758621,17.0689655 C201.302254,17.0689655 197.689655,13.4563666 197.689655,9 C197.689655,4.5436334 201.302254,0.931034483 205.758621,0.931034483 C210.214987,0.931034483 213.827586,4.5436334 213.827586,9 C213.827586,13.4563666 210.214987,17.0689655 205.758621,17.0689655 Z M205.758621,13.9655172 C208.501,13.9655172 210.724138,11.7423794 210.724138,9 C210.724138,6.25762055 208.501,4.03448276 205.758621,4.03448276 C203.016241,4.03448276 200.793103,6.25762055 200.793103,9 C200.793103,11.7423794 203.016241,13.9655172 205.758621,13.9655172 Z"/>
  </g>
</svg>
